<svg width="8" height="9" viewBox="0 0 8 9" fill="none" xmlns="http://www.w3.org/2000/svg">
<g clip-path="url(#clip0)">
<path d="M7.63641 0.5H4.72731C4.52648 0.5 4.36367 0.662813 4.36367 0.863641C4.36367 1.06447 4.52648 1.22728 4.72731 1.22728H6.75852L3.01565 4.97016C2.87367 5.11214 2.87367 5.34239 3.01565 5.48441C3.08664 5.55539 3.1797 5.59091 3.27276 5.59091C3.36583 5.59091 3.4589 5.55539 3.52987 5.48439L7.27278 1.74153V3.77273C7.27278 3.97356 7.4356 4.13637 7.63642 4.13637C7.83725 4.13637 8.00006 3.97356 8.00006 3.77273V0.863641C8.00005 0.662813 7.83724 0.5 7.63641 0.5Z" fill="#13192F"/>
<path d="M6.18181 4.1364C5.98098 4.1364 5.81817 4.29921 5.81817 4.50004V7.77277H0.727266V2.68186H4C4.20083 2.68186 4.36364 2.51904 4.36364 2.31821C4.36364 2.11739 4.20083 1.95459 4 1.95459H0.363641C0.162813 1.95459 0 2.1174 0 2.31823V8.13641C0 8.33723 0.162813 8.50004 0.363641 8.50004H6.18183C6.38266 8.50004 6.54547 8.33723 6.54547 8.1364V4.50004C6.54545 4.29921 6.38264 4.1364 6.18181 4.1364Z" fill="#13192F"/>
</g>
<defs>
<clipPath id="clip0">
<rect width="8" height="8" fill="white" transform="translate(0 0.5)"/>
</clipPath>
</defs>
</svg>
